<svg preserveAspectRatio="none" overflow="visible" style="display: block;" width="198.06" height="7.06264" viewBox="0 0 198.06 7.06264" fill="none" xmlns="http://www.w3.org/2000/svg">
<path id="Vector 20" d="M1.46175 4.06292C1.06401 4.07114 0.686588 4.23717 0.41255 4.52559C0.13851 4.81394 -0.00970125 5.20107 0.000493169 5.60069C0.0106877 6.00031 0.178444 6.37938 0.46683 6.65339C0.755218 6.92746 1.14061 7.07402 1.53826 7.06195C1.53826 7.06195 1.53826 7.06195 1.53826 7.06195C4.80453 6.963 8.0708 6.86404 11.3371 6.76509C70.1299 4.98393 128.923 3.20277 187.716 1.42161C190.982 1.32266 194.248 1.22371 197.514 1.12475C197.663 1.12025 197.804 1.05674 197.906 0.948622C198.008 0.840477 198.063 0.696576 198.06 0.54816C198.056 0.399744 197.993 0.258851 197.886 0.156061C197.778 0.0532956 197.634 -0.00294763 197.486 0.00011915C197.486 0.00011915 197.486 0.00011915 197.486 0.00011915C194.219 0.0678326 190.952 0.135546 187.684 0.203259C128.877 1.4221 70.0701 2.64094 11.2629 3.85978C7.99588 3.9275 4.72882 3.99521 1.46175 4.06292Z" fill="white"/>
</svg>
